<svg id="Layer_1" data-name="Layer 1" xmlns="http://www.w3.org/2000/svg" xmlns:xlink="http://www.w3.org/1999/xlink" viewBox="0 0 226 293.55"><defs><style>.cls-1{fill:#ffefc2;}.cls-2{fill:#181f21;}.cls-3{fill:#050505;}.cls-4{fill:url(#linear-gradient);}.cls-5{fill:url(#linear-gradient-2);}.cls-6{fill:url(#linear-gradient-3);}.cls-7{fill:url(#linear-gradient-4);}.cls-8{fill:url(#linear-gradient-5);}.cls-10,.cls-11,.cls-9{isolation:isolate;}.cls-10,.cls-11{font-size:41.95px;font-family:GillSans, Gill Sans;}.cls-11{letter-spacing:-0.02em;}</style><linearGradient id="linear-gradient" x1="885.54" y1="-17.06" x2="885.54" y2="69.87" gradientTransform="matrix(1, 0, 0, -1, -665.57, 356.85)" gradientUnits="userSpaceOnUse"><stop offset="0" stop-color="#fff"/><stop offset="0.31" stop-color="#ffb6b9"/><stop offset="0.89" stop-color="#d4145a"/></linearGradient><linearGradient id="linear-gradient-2" x1="985.72" y1="-16.55" x2="985.72" y2="70.38" gradientTransform="matrix(0.95, 0.33, 0.33, -0.95, -710.23, 46.53)" gradientUnits="userSpaceOnUse"><stop offset="0" stop-color="#fff" stop-opacity="0.5"/><stop offset="0.31" stop-color="#ffb6b9" stop-opacity="0.93"/><stop offset="0.89" stop-color="#d4145a" stop-opacity="0.8"/></linearGradient><linearGradient id="linear-gradient-3" x1="392.08" y1="248.81" x2="479.32" y2="248.81" gradientTransform="matrix(-0.01, -1, -1, 0.01, 383.85, 762.2)" xlink:href="#linear-gradient"/><linearGradient id="linear-gradient-4" x1="385.52" y1="336.56" x2="472.78" y2="336.56" gradientTransform="matrix(-0.3, -0.95, -0.95, 0.3, 571.07, 650.83)" xlink:href="#linear-gradient-2"/><linearGradient id="linear-gradient-5" x1="822.52" y1="-154.49" x2="822.52" y2="-26.06" gradientTransform="matrix(0.63, -0.04, -0.03, -0.71, -343.33, 295.34)" gradientUnits="userSpaceOnUse"><stop offset="0" stop-color="#fff"/><stop offset="0.35" stop-color="#ffb6b9"/><stop offset="0.93" stop-color="#d4145a"/></linearGradient></defs><title>Untitled-9</title><path class="cls-1" d="M255.53,243.29c0,41.11-35.15,74.38-78.51,74.38s-78.5-33.27-78.5-74.38a70.62,70.62,0,0,1,3.66-22.51C112.25,190.71,142,168.91,177,168.91h.72a82.43,82.43,0,0,1,13,1.13c27.69,4.63,50.42,23,60,47.51A70.78,70.78,0,0,1,255.53,243.29Z" transform="translate(-64 -155.33)"/><path class="cls-2" d="M250.71,217.57a20.57,20.57,0,0,1-29.08,1,3.83,3.83,0,0,1-.29-.28,20.56,20.56,0,0,1-29.08-.41l-.29-.3a20.5,20.5,0,0,1-29,1,20.1,20.1,0,0,1-2.28-2.51A20.49,20.49,0,0,1,132,219.83a21,21,0,0,1-3.1-2.94,20.16,20.16,0,0,1-15.57,7.16,20.43,20.43,0,0,1-11.2-3.28C112.19,190.7,141.89,168.9,177,168.9h.72c2.29.1,7.09.53,13,1.13C218.48,174.68,241.18,193.1,250.71,217.57Z" transform="translate(-64 -155.33)"/><path class="cls-3" d="M194.76,247.56a18.9,18.9,0,0,0,32.83-.39,1.26,1.26,0,0,0-2.17-1.27,16.36,16.36,0,0,1-28.53.39,1.26,1.26,0,0,0-2.17,1.27Z" transform="translate(-64 -155.33)"/><path class="cls-3" d="M131.49,247.56a18.92,18.92,0,0,0,32.84-.39,1.27,1.27,0,0,0-2.19-1.27,16.35,16.35,0,0,1-28.47.39,1.26,1.26,0,0,0-2.18,1.27Z" transform="translate(-64 -155.33)"/><path class="cls-2" d="M103.05,226.41h0a10.07,10.07,0,0,1,10.07,10.07v29.19a10.07,10.07,0,0,1-10.07,10.07h0A10.07,10.07,0,0,1,93,265.67V236.48A10.07,10.07,0,0,1,103.05,226.41Z" transform="translate(-64 -155.33)"/><rect class="cls-2" x="20.06" y="81.25" width="8.92" height="29.15" rx="3.31"/><rect class="cls-2" x="176.6" y="71.14" width="20.44" height="49.33" rx="10.07"/><rect class="cls-2" x="197.05" y="81.31" width="8.92" height="29.15" rx="3.31"/><path class="cls-2" d="M81.73,251.07a93.09,93.09,0,0,1,26.13-68.8,89.11,89.11,0,0,1,31.62-21.09A85.64,85.64,0,0,1,158,156.32c1.59-.2,3.17-.47,4.77-.56s3.2-.3,4.8-.32c3.24-.13,6.29-.08,9.42-.1s6.18,0,9.43.1c1.6,0,3.2.18,4.79.31s3.19.37,4.78.57a86.56,86.56,0,0,1,18.53,4.83,89.06,89.06,0,0,1,31.63,21.09,92.6,92.6,0,0,1,11.74,14.95,95.38,95.38,0,0,1,8.45,16.95,93.85,93.85,0,0,1,5.88,36.92,101.13,101.13,0,0,0-8.2-36A94.6,94.6,0,0,0,243.34,185a87.82,87.82,0,0,0-30.47-19.39,84.48,84.48,0,0,0-17.57-4.45c-1.5-.18-3-.43-4.5-.5s-3-.27-4.52-.27c-3-.1-6.16,0-9.23,0s-6.28-.05-9.23,0c-1.52,0-3,.16-4.53.27s-3,.32-4.51.51a85,85,0,0,0-17.56,4.44A87.78,87.78,0,0,0,110.68,185,94.1,94.1,0,0,0,90,215,100.65,100.65,0,0,0,81.73,251.07Z" transform="translate(-64 -155.33)"/><path class="cls-4" d="M244.41,355.9c-18.26,18.78-44.76,23.87-58.46,10.53s-9-39.36,9.23-58.14S261.93,287,261.93,287,262.66,337.13,244.41,355.9Z" transform="translate(-64 -155.33)"/><path class="cls-5" d="M251,375.24c-23.39,11.74-50.09,7.92-58.69-9.16s4.33-40.16,27.69-51.94,70,1.68,70,1.68S274.35,363.45,251,375.24Z" transform="translate(-64 -155.33)"/><path class="cls-6" d="M154.69,304.45c19.81,18.7,25.5,46.15,11.85,60.61s-40.79,10-60.59-8.7S82.77,287.3,82.77,287.3,134.88,285.77,154.69,304.45Z" transform="translate(-64 -155.33)"/><path class="cls-7" d="M137.81,311.63c24.33,12.17,37.76,36.81,28.85,54.59s-36.17,21.38-60.52,9.17S64,316,64,316,113.45,299.45,137.81,311.63Z" transform="translate(-64 -155.33)"/><path class="cls-8" d="M209.27,332.73c-.59,22.43-15.27,41-32.81,40.53s-30.64-19.6-30.06-42,31.68-52.13,31.68-52.13S209.85,310.29,209.27,332.73Z" transform="translate(-64 -155.33)"/><g class="cls-9"><text class="cls-10" transform="translate(17.64 283.86)">Ambisphe</text><text class="cls-11" transform="translate(186.33 283.86)">r</text><text class="cls-10" transform="translate(202.1 283.86)">e</text></g></svg>