<svg xmlns="http://www.w3.org/2000/svg" viewBox="0 0 112.27 61.53"><defs><style>.cls-1{fill:#fff;}</style></defs><title>Asset 14</title><g id="Layer_2" data-name="Layer 2"><g id="Airplane"><path class="cls-1" d="M20.64,31.48S32.37,24.75,36,23.17C21.61,12.29,11.23,9.84,11.89,5.78c0-3.05,6-6.7,12.27-5.57C29.92,1.63,63.23,10.5,63.23,10.5S86.91.68,97.2,2.85C94.09,4.36,86.07,8,86.07,8l-.38,3.77s13.21-5.94,17.74-8c6.39-.33,20.95,7-11.47,22.89C86.07,30.22,7,60.89,3.21,47c0,0-1.39-4,3.58-6.23,0,0-6.79-9.25-6.79-13.21C0,26.13,2.17,20,20.64,31.48Z"/><path class="cls-1" d="M58.51,43.56C62.28,42.05,75.87,37,80.21,35c1.89.19,3.78,12.36,3.21,17.65-.37,4.53-6.23,9.43-8.87,8.87C70,62.05,60.59,50,58.51,43.56Z"/></g></g></svg>