<svg xmlns="http://www.w3.org/2000/svg" viewBox="0 0 91.3 79.32"><defs><style>.cls-1{fill:#fff;}</style></defs><title>Asset 4</title><g id="Layer_2" data-name="Layer 2"><g id="Galaxy"><path class="cls-1" d="M52,37.69c-.32,6-9.3,6-9.3,0s9-5.95,9.3,0c0,.73,1.18.73,1.14,0A5.79,5.79,0,1,0,47,43.46a5.89,5.89,0,0,0,6.07-5.77C53.13,37,52,37,52,37.69Z"/><path class="cls-1" d="M91.24,26.25C84.09,8.85,66.24-2.22,47.35.38c-18.27,2.5-32.5,18.16-30.3,37.07C19.1,55,36.56,67.67,53.71,60.75c16-6.46,19.33-33.13.37-38.16-8.57-2.28-18.29,2.55-19.51,11.81-1.2,9,6.64,16.22,15.46,13.39.91-.29.52-1.74-.4-1.45C38.44,49.94,32,36.28,39,28.18c6.23-7.31,18.26-5.49,23.57,1.95,4.56,6.42,4.08,15.58-.27,22-4.54,6.65-12.8,9.68-20.66,9C24.89,59.49,15.79,42.57,19,27.1c3.19-15.31,17.14-25,32.3-25.57A40.17,40.17,0,0,1,89.79,26.65c.36.88,1.82.5,1.45-.4Z"/><path class="cls-1" d="M2.67,48.59C9.82,66,27.67,77.06,46.56,74.47,64.83,72,79.06,56.3,76.86,37.39,74.82,19.87,57.35,7.17,40.2,14.1c-16,6.46-19.33,33.12-.37,38.16,8.58,2.27,18.29-2.55,19.52-11.81,1.2-9.05-6.65-16.23-15.47-13.4-.91.3-.52,1.75.4,1.45C55.47,24.9,61.87,38.56,55,46.67c-6.23,7.3-18.26,5.49-23.56-2-4.57-6.41-4.09-15.57.26-21.94,4.54-6.66,12.8-9.68,20.66-9C69,15.36,78.12,32.27,74.89,47.74c-3.19,15.31-17.14,25-32.3,25.58A40.18,40.18,0,0,1,4.12,48.19c-.36-.88-1.81-.49-1.45.4Z"/><circle class="cls-1" cx="17.64" cy="27.12" r="4.14"/><circle class="cls-1" cx="46.31" cy="62.12" r="3.33"/><circle class="cls-1" cx="75.89" cy="35.94" r="3.64"/><circle class="cls-1" cx="52.35" cy="46.1" r="0.63"/><circle class="cls-1" cx="21.74" cy="60.26" r="0.63"/><circle class="cls-1" cx="36.81" cy="23.12" r="0.63"/><circle class="cls-1" cx="77.81" cy="20.16" r="0.63"/><path class="cls-1" d="M51,7.71h4.41a.83.83,0,0,0,0-1.65H51a.83.83,0,0,0,0,1.65Z"/><path class="cls-1" d="M52.38,4.72V9.14a.83.83,0,0,0,1.65,0V4.72a.83.83,0,0,0-1.65,0Z"/><polygon class="cls-1" points="6.13 11.29 8.03 15.12 12.26 15.74 9.2 18.73 9.92 22.95 6.13 20.96 2.34 22.95 3.07 18.73 0 15.74 4.24 15.12 6.13 11.29"/><polygon class="cls-1" points="81.86 56.83 83.08 59.3 85.81 59.7 83.83 61.62 84.3 64.34 81.86 63.06 79.42 64.34 79.88 61.62 77.91 59.7 80.64 59.3 81.86 56.83"/><path class="cls-1" d="M24.48,77.59h3.43a.64.64,0,0,0,0-1.28H24.48a.64.64,0,0,0,0,1.28Z"/><path class="cls-1" d="M25.55,75.27V78.7a.64.64,0,0,0,1.28,0V75.27a.64.64,0,0,0-1.28,0Z"/></g></g></svg>