<svg xmlns="http://www.w3.org/2000/svg" viewBox="0 0 91.71 91.71"><defs><style>.cls-1{fill:#fff;}</style></defs><title>Asset 7</title><g id="Layer_2" data-name="Layer 2"><g id="Guitar"><path class="cls-1" d="M91.51,14.8l-2-2.35a.71.71,0,0,0-.39-.22l2.46-2.52L82.28.43,79.49,3.1a.72.72,0,0,0-.19-.5C78.63,1.81,78,1,77.28.25S75.6.58,76.22,1.31s1.35,1.56,2,2.35a.6.6,0,0,0,.43.22l-3.4,3.26a.84.84,0,0,0-.17-.34l-2-2.35c-.63-.73-1.69.33-1.06,1.06l2,2.35a.7.7,0,0,0,.27.2l-3.2,3.06-.63,3.47L45.62,39.13c-15.52-9.4-21.27,5.4-24.78,8a1.53,1.53,0,0,1-.94.32C3.3,48.88-7.91,64.6,6.92,82.71c5.6,7.17,30.68,19.82,37-9.21a2.2,2.2,0,0,1,.82-1.39C57.89,61.31,58.42,55.78,53,45.74c6.14-6,25-24.55,25-24.55L80.55,21l3.52-3.62a.63.63,0,0,0,.16.3c.67.78,1.35,1.56,2,2.35s1.69-.33,1.06-1.06-1.35-1.57-2-2.35a.59.59,0,0,0-.29-.2l3.26-3.36a.75.75,0,0,0,.17.42l2,2.34C91.08,16.6,92.14,15.53,91.51,14.8ZM27,73.27a8.58,8.58,0,1,1,8.57-8.58A8.58,8.58,0,0,1,27,73.27Z"/></g></g></svg>