<svg xmlns="http://www.w3.org/2000/svg" viewBox="0 0 65.81 72.25"><defs><style>.cls-1{fill:#fff;}</style></defs><title>Asset 6</title><g id="Layer_2" data-name="Layer 2"><g id="Thunder_and_Rain" data-name="Thunder and Rain"><path class="cls-1" d="M65.69,51.94a.2.2,0,0,0,0-.07s0,0,0-.07L56.47,0h-.08l-46,8.17L12.46,20.1h0l5.75,32.38a13.39,13.39,0,0,0-7.93-.95C3.67,52.7-.87,58.24.14,63.9S7.31,73.2,13.92,72c6.45-1.14,10.92-6.45,10.19-12h0l-.06-.35a.06.06,0,0,1,0,0s0,0,0,0L16.9,19.31,54.15,12.7l5.68,32a13.38,13.38,0,0,0-7.93-1c-6.6,1.18-11.14,6.72-10.14,12.38s7.18,9.3,13.78,8.13,11-6.53,10.18-12.1h0Z"/></g></g></svg>