<svg xmlns="http://www.w3.org/2000/svg" viewBox="0 0 95.87 95.71"><defs><style>.cls-1{fill:#fff;}</style></defs><title>Asset 8</title><g id="Layer_2" data-name="Layer 2"><g id="Jazz"><path class="cls-1" d="M95.59,55.64,95,56.72a1,1,0,0,1-1.34.35L82.54,50.59a5.1,5.1,0,0,1-2-2.19c-6.06-12.77-12.67-8-20,2.9a2.7,2.7,0,0,0-.33-.22A3.42,3.42,0,1,0,56.8,57l.19.1c-.63,1.05-1.26,2.14-1.9,3.25l-.18-.13a3.42,3.42,0,0,0-3.46,5.91l.29.15c-.61,1.09-1.22,2.2-1.84,3.3a4,4,0,0,0-.34-.23,3.42,3.42,0,1,0-3.46,5.9,2.27,2.27,0,0,0,.47.23c-.63,1.11-1.27,2.22-1.92,3.31a3.47,3.47,0,0,0-.44-.31,3.42,3.42,0,1,0-3.46,5.9,1.93,1.93,0,0,0,.38.19c-.56.88-1.11,1.74-1.67,2.58C25.88,104.77-5.58,93.82.86,67A10.52,10.52,0,0,1,2,64.18C8.9,52.4,10.56,49,10.56,49l-1.23-.72a3.85,3.85,0,1,1,3.89-6.64L35.11,54.51a3.85,3.85,0,0,1-3.89,6.64L30,60.43c-13.76,19-.37,20.36,1.85,19.68,5.81-9.36,14.27-23.51,23.33-39a6.73,6.73,0,0,1,1-1.34c12.53-12.2,28.2-3.21,30.46,6.25l6.49,3.81a4.83,4.83,0,0,1,2.19,2.75L95.77,54A2,2,0,0,1,95.59,55.64ZM57,57.08a3.42,3.42,0,0,0,3.6-5.78m-8.85,15a3.42,3.42,0,0,0,3.35-5.93l-.18-.13a3.42,3.42,0,0,0-3.46,5.91l.29.15m-5.17,9.2a3.42,3.42,0,0,0,3.33-5.9l-.34-.23a3.42,3.42,0,1,0-3.46,5.9m-5,9.32a3.42,3.42,0,0,0,3.52-5.78m-.44-.31a3.42,3.42,0,1,0-3.46,5.9"/><line class="cls-1" x1="84.47" y1="40.81" x2="81.63" y2="45.65"/><rect class="cls-1" x="2.08" y="10.05" width="3.38" height="6.76" rx="1.22" ry="1.22"/><path class="cls-1" d="M78.28.16C64.11,11,5.46,11.74,5.46,11.74v3.38c.85,0,2.54,0,4.86.11a36.56,36.56,0,0,0-.15,5.37c0,6.61,5.7,12,12.71,12H41c6.91,0,12.61-6.48,12.78-13,9.51,1.71,18.47,4.05,24.75,7.23C80,24.35,80.76-2.31,78.28.16ZM41,29.21H22.88a9.36,9.36,0,0,1-9.34-9.34,22.83,22.83,0,0,1,.34-4.49A339.47,339.47,0,0,1,50.41,19C50.4,24.15,46.15,29.21,41,29.21Z"/><rect class="cls-1" x="21.03" y="7.08" width="3.81" height="4.51"/><rect class="cls-1" x="30.44" y="6.44" width="3.81" height="4.51"/><rect class="cls-1" x="39.29" y="5.32" width="3.81" height="4.51"/><rect class="cls-1" x="19.55" y="4.83" width="6.42" height="1.91" rx="0.69" ry="0.69"/><rect class="cls-1" x="29.04" y="4.19" width="6.42" height="1.91" rx="0.69" ry="0.69"/><rect class="cls-1" x="38.12" y="3.06" width="6.42" height="1.91" rx="0.69" ry="0.69"/><circle class="cls-1" cx="58.5" cy="54.02" r="3.5"/><circle class="cls-1" cx="42.6" cy="81.4" r="3.5"/></g></g></svg>