<svg xmlns="http://www.w3.org/2000/svg" viewBox="0 0 77.59 81.58"><defs><style>.cls-1{fill:#fff;}</style></defs><title>Asset 11</title><g id="Layer_2" data-name="Layer 2"><g id="Leaves"><path class="cls-1" d="M76.36,45.58C72.44,63.85,62.19,71.16,46.44,71.16,31.11,65.5,26.69,52.58,33,38.25,40,22.91,54.36,16.58,62.2,0,69.36,6.25,81.5,28,76.36,45.58Z"/><path class="cls-1" d="M61,29.91C54,54.25,46.44,71.16,34,81.58"/><path class="cls-1" d="M25.29,28.37c8.08-5.82,9.46-12.39,6.1-20.08-6-6.28-13.29-5.68-18.94.48-6,6.69-6,15.05-12.45,22.42C4.58,33.35,17.82,34.63,25.29,28.37Z"/><path class="cls-1" d="M14.36,24.22C24.75,15.61,31.39,8.29,33.83,0"/></g></g></svg>