<svg xmlns="http://www.w3.org/2000/svg" viewBox="0 0 130.93 113.23"><defs><style>.cls-1{fill:#fff;}.cls-2{fill:none;stroke:#fff;stroke-linecap:round;stroke-linejoin:round;stroke-width:0;}</style></defs><title>Asset 9</title><g id="Layer_2" data-name="Layer 2"><g id="Nature"><path class="cls-1" d="M129.85,77.64c-22.84-1.53-42.61,11-61.49,22.08a81.45,81.45,0,0,1-36.7,10.91c-10.11.5-21.5-.82-29.68-7.33-1.12-.89-2.73.69-1.59,1.59,16.26,12.94,42,8.72,59.62,1.44,10.87-4.48,20.47-11.6,31-16.89,12.14-6.13,25.13-10.47,38.88-9.55,1.45.09,1.44-2.16,0-2.25Z"/><rect class="cls-1" x="19.64" y="99.01" width="22.51" height="3" transform="translate(-69.65 131.27) rotate(-89.93)"/><path class="cls-1" d="M32.37,111c-1.18,0-2.92-.6-2.25.7a5.45,5.45,0,0,1,0-1.71c.16-2.55,0-5.17,0-7.73V93.82c0-1,.1-2.06,0-3.06-.06-.69.32-1.56-.22-1.11-.76.63,1.28.35,1.41.35,1,0,.65.12.31-.63a4.75,4.75,0,0,1,0,1.64c-.24,2.53,0,5.19,0,7.73l0,13a.75.75,0,0,0,1.5,0l0-22.51a.76.76,0,0,0-.75-.75h-3a.76.76,0,0,0-.75.75l0,22.51a.77.77,0,0,0,.75.75h3A.75.75,0,0,0,32.37,111Z"/><polygon class="cls-1" points="51.85 89.64 36.86 64.72 45.01 64.66 30.97 41.26 30.97 41.26 16.94 64.59 24.96 64.59 9.97 89.51 51.85 89.64"/><path class="cls-1" d="M109.78,65.9c-2.18,1.95-4.9,2.48-6.07,1.17s-.36-3.95,1.82-5.91,4.23-1.3,6.62-1.63C111.7,61.31,112,63.94,109.78,65.9Z"/><path class="cls-1" d="M105.45,65.28c-1.71,2.1-3.48,3.54-3.94,3.23"/><path d="M52.84,29.08c5,0,9.17-2.55,9.88-5.88L48.21,28.29A13.66,13.66,0,0,0,52.84,29.08Z"/><path class="cls-1" d="M73.53,25.57a8.09,8.09,0,0,0-2.65.44,7.63,7.63,0,0,0-2.83-2,11.39,11.39,0,0,0-4.45-.88l-.88,0c-.71,3.33-4.86,5.88-9.88,5.88a13.66,13.66,0,0,1-4.63-.79,4,4,0,0,0-.7,2.24c0,2.74,2.89,5,6.46,5a7.32,7.32,0,0,0,5-1.84,11.42,11.42,0,0,0,4.61.93,12.17,12.17,0,0,0,1.94-.17,10.56,10.56,0,0,0,2.87-.86,7.27,7.27,0,0,0,5.12,1.94c3.57,0,6.46-2.23,6.46-5S77.1,25.57,73.53,25.57Z"/><line class="cls-2" x1="62.72" y1="23.2" x2="63.6" y2="23.16"/><path class="cls-1" d="M62.72,23.2a4.89,4.89,0,0,0,.12-1c0-3.7-4.22-6.7-9.52-6.88h-.48a14.17,14.17,0,0,0-2,.13c-1.29-4.52-6.71-7.91-13.19-7.91-6.67,0-12.19,3.58-13.29,8.29-5.39.1-9.72,3.14-9.72,6.88s4.48,6.89,10,6.89a11.9,11.9,0,0,0,8-2.77,17.92,17.92,0,0,0,5,.71,17.11,17.11,0,0,0,6.92-1.43,6.89,6.89,0,0,0,.75.67,10.67,10.67,0,0,0,2.86,1.53Z"/><circle class="cls-1" cx="107.18" cy="17.26" r="7.67"/><path class="cls-1" d="M94.58,2.86l4.67,4.67A.38.38,0,0,0,99.78,7L95.12,2.33c-.35-.34-.88.19-.54.53Z"/><path class="cls-1" d="M90.77,13.15,95,14c.47.1.68-.63.2-.72L91,12.43c-.48-.1-.68.62-.2.72Z"/><path class="cls-1" d="M89.61,24.78l5.88-3c.43-.22.05-.87-.38-.65l-5.88,3c-.43.22,0,.87.38.65Z"/><path class="cls-1" d="M97.9,31.86l2.47-3.25c.29-.38-.36-.76-.65-.38l-2.47,3.25c-.29.38.36.76.65.38Z"/><path class="cls-1" d="M108.9,36.28l-1-6.52c-.08-.48-.8-.28-.72.2l1,6.52c.07.47.8.27.72-.2Z"/><path class="cls-1" d="M118.18,30.39,115.12,27c-.33-.36-.86.17-.54.53l3.07,3.39c.33.36.85-.17.53-.53Z"/><path class="cls-1" d="M125.88,21.52l-6.52-1c-.47-.07-.67.65-.2.73l6.52,1c.47.07.68-.65.2-.72Z"/><path class="cls-1" d="M122.53,10.56l-3.66,2.18a.37.37,0,0,0,.38.64l3.66-2.18a.37.37,0,0,0-.38-.64Z"/><path class="cls-1" d="M117,.81l-3,5.88c-.22.43.43.81.65.38l3-5.88c.22-.43-.42-.81-.64-.38Z"/><path class="cls-1" d="M106.27.36l.21,4.3c0,.48.78.49.75,0L107,.36c0-.48-.77-.48-.75,0Z"/><path class="cls-1" d="M41.65,75.23C55.46,79.64,67,90.61,81.32,93.15c.94.17,1.35-1.28.4-1.45C67.39,89.17,55.85,78.19,42.05,73.79c-.92-.3-1.32,1.15-.4,1.44Z"/><path class="cls-1" d="M8.05,75.15A116.61,116.61,0,0,1,21.1,73.51c1-.06,1-1.57,0-1.5A121.73,121.73,0,0,0,7.65,73.7c-1,.18-.55,1.62.4,1.45Z"/><path class="cls-1" d="M95.43,69.05c-3,4.58-6.57,5.5-10.88,3.84-3.59-3.17-3.44-7.17-.19-10.42,3.53-3.45,8.12-3.67,12-7.37C97.67,57.56,98.69,64.8,95.43,69.05Z"/><path class="cls-1" d="M92.89,63.15c-4.48,5.91-8.34,9.74-12.83,11.27"/></g></g></svg>