<svg xmlns="http://www.w3.org/2000/svg" viewBox="0 0 122.41 120.74"><defs><style>.cls-1{fill:#fff;}</style></defs><title>Asset 13</title><g id="Layer_2" data-name="Layer 2"><g id="outdoor"><path class="cls-1" d="M63.56,21.13a8.14,8.14,0,0,1,2.65.44,7.68,7.68,0,0,1,2.83-2,11.37,11.37,0,0,1,4.44-.87l.88,0c.72,3.32,4.86,5.88,9.88,5.88a13.62,13.62,0,0,0,4.63-.79,4,4,0,0,1,.71,2.24c0,2.74-2.9,5-6.47,5a7.31,7.31,0,0,1-5-1.83,11.42,11.42,0,0,1-4.61.93A12.28,12.28,0,0,1,71.54,30a10.56,10.56,0,0,1-2.87-.86,7.24,7.24,0,0,1-5.11,1.93c-3.58,0-6.47-2.22-6.47-5S60,21.13,63.56,21.13Z"/><path class="cls-1" d="M74.36,18.76a4.89,4.89,0,0,1-.12-1c0-3.7,4.22-6.7,9.52-6.88l.48,0a14.05,14.05,0,0,1,2,.14c1.3-4.52,6.71-7.91,13.2-7.91,6.66,0,12.19,3.58,13.29,8.28,5.39.11,9.71,3.15,9.71,6.89s-4.48,6.89-10,6.89a11.93,11.93,0,0,1-8-2.78,17.54,17.54,0,0,1-5,.72,17.12,17.12,0,0,1-6.93-1.43,8,8,0,0,1-.75.66,10.28,10.28,0,0,1-2.86,1.54Z"/><circle class="cls-1" cx="18.14" cy="17.26" r="7.67"/><path class="cls-1" d="M5.54,2.86l4.67,4.67A.38.38,0,0,0,10.74,7L6.07,2.33a.38.38,0,0,0-.53.53Z"/><path class="cls-1" d="M1.72,13.15,6,14c.47.1.67-.63.2-.72l-4.24-.89c-.47-.1-.67.62-.2.72Z"/><path class="cls-1" d="M.57,24.78l5.88-3c.43-.22,0-.87-.38-.65l-5.88,3c-.43.22,0,.87.38.65Z"/><path class="cls-1" d="M8.85,31.86l2.47-3.25c.29-.38-.36-.76-.65-.38L8.21,31.48c-.3.38.35.76.64.38Z"/><path class="cls-1" d="M19.86,36.28l-1-6.52c-.07-.48-.79-.28-.72.2l1,6.52c.08.47.8.27.73-.2Z"/><path class="cls-1" d="M29.14,30.39,26.07,27c-.32-.36-.85.17-.53.53l3.07,3.39c.32.36.85-.17.53-.53Z"/><path class="cls-1" d="M36.84,21.52l-6.52-1c-.47-.07-.68.65-.2.73l6.52,1c.47.07.67-.65.2-.72Z"/><path class="cls-1" d="M33.49,10.56l-3.66,2.18a.37.37,0,0,0,.38.64l3.66-2.18a.37.37,0,0,0-.38-.64Z"/><path class="cls-1" d="M28,.81,25,6.69c-.22.43.42.81.64.38l3-5.88c.22-.43-.43-.81-.65-.38Z"/><path class="cls-1" d="M17.23.36l.21,4.3c0,.48.77.49.75,0L18,.36c0-.48-.77-.48-.75,0Z"/><path class="cls-1" d="M114.18,84.26H98C83,79.65,79.19,44.76,57.64,44.76c-17.91,0-25.92,34.91-40.15,39.5H5.18v1H87.59C72.44,87.5,44.13,94.72,26,118l.79.62C52.08,86.14,97.52,85.27,98,85.26h7a56,56,0,0,0-10.07,4.52c-7.82,4.4-19.95,13.23-33.3,30.34l.79.62c25-32.1,46-35.39,46.64-35.48h5.17Z"/></g></g></svg>