<svg xmlns="http://www.w3.org/2000/svg" viewBox="0 0 169.08 160.72"><defs><style>.cls-1{fill:#fff;}</style></defs><title>Asset 1</title><g id="Layer_2" data-name="Layer 2"><g id="Layer_1-2" data-name="Layer 1"><rect class="cls-1" y="16.67" width="90.67" height="16.67" rx="8.33" ry="8.33"/><rect class="cls-1" y="48.22" width="90.67" height="16.67" rx="8.33" ry="8.33"/><rect class="cls-1" y="79.77" width="90.67" height="16.67" rx="8.33" ry="8.33"/><path class="cls-1" d="M130.3,0H113V107.62a44.27,44.27,0,0,0-19.37-4.33C73.38,103.29,57,116.15,57,132s16.41,28.72,36.66,28.72S130.3,147.86,130.3,132V37c16.39,1.75,24.37,11.17,27.87,16,1.83,4.17.32,6.77.41,8.5,1.75,3,4,.75,4,.75C188.08,28.58,130.3,20.67,130.3,0Z"/></g></g></svg>