<svg xmlns="http://www.w3.org/2000/svg" viewBox="0 0 107.05 127.4"><defs><style>.cls-1{fill:#fff;}</style></defs><title>Asset 18</title><g id="Layer_2" data-name="Layer 2"><g id="Thunder_and_Rain" data-name="Thunder and Rain"><path class="cls-1" d="M86.64,17.64a22.38,22.38,0,0,0-3.3.26C78.5,7.43,66.36,0,52.14,0,36.64,0,23.61,8.83,19.81,20.8,8.68,21.68,0,29,0,37.84,0,47.3,9.88,55,22.08,55A26.56,26.56,0,0,0,34.7,51.89,38.17,38.17,0,0,0,52.14,56a37.49,37.49,0,0,0,20.67-6,21.36,21.36,0,0,0,13.83,5c11.27,0,20.41-8.36,20.41-18.67S97.91,17.64,86.64,17.64Z"/><circle class="cls-1" cx="32.55" cy="72.65" r="3"/><circle class="cls-1" cx="62.55" cy="86.15" r="3"/><circle class="cls-1" cx="84.95" cy="68.14" r="3"/><circle class="cls-1" cx="17.55" cy="104.65" r="3"/><circle class="cls-1" cx="92.55" cy="101.15" r="3"/><circle class="cls-1" cx="54.05" cy="112.15" r="3"/><circle class="cls-1" cx="12.55" cy="69.4" r="1.75"/><circle class="cls-1" cx="55.32" cy="63.55" r="1.75"/><circle class="cls-1" cx="100.05" cy="81.65" r="1.75"/><circle class="cls-1" cx="79.21" cy="91.65" r="1.75"/><circle class="cls-1" cx="41.34" cy="96.91" r="1.75"/><circle class="cls-1" cx="43.88" cy="125.65" r="1.75"/><path class="cls-1" d="M30.54,89.09l-2.31.6-4-2.36,4-2.38,2.32.59a.24.24,0,0,0,.12-.46l-1.87-.47,1.63-1a.24.24,0,0,0-.24-.41l-1.56.94L29,82.42a.24.24,0,0,0-.46-.12L28,84.48v0l-4,2.38V82.38l1.69-1.7c.22-.21-.11-.54-.33-.33L24,81.71v-1.9a.24.24,0,0,0-.47,0v1.82l-1.27-1.28c-.21-.21-.55.12-.33.33.52.54,1,1.07,1.58,1.6,0,0,0,0,0,0V87l-3.9-2.28c-.2-.78-.41-1.55-.61-2.32a.23.23,0,0,0-.45.12c.16.62.32,1.24.49,1.86l-1.64-1a.24.24,0,0,0-.24.41l1.57.92L17,85.14a.24.24,0,0,0,.12.46L19.31,85h0l3.94,2.31L19.32,89.7h0l-2.18-.54a.24.24,0,0,0-.11.46l1.75.43L17.22,91a.24.24,0,0,0,.24.41l1.6-1-.47,1.87a.24.24,0,0,0,.46.11c.19-.77.39-1.55.58-2.32l3.91-2.34v4.69s0,0,0,0L21.94,94a.24.24,0,0,0,.33.34l1.27-1.29v1.79a.24.24,0,0,0,.47,0V93l1.36,1.37A.24.24,0,0,0,25.7,94L24,92.33V87.77l4,2.37v0c.2.72.39,1.45.58,2.17a.24.24,0,0,0,.46-.12c-.16-.58-.31-1.16-.47-1.74l1.54.9a.24.24,0,0,0,.24-.41L28.8,90l1.86-.49A.23.23,0,0,0,30.54,89.09Z"/><path class="cls-1" d="M73.13,73.08l-1.46.38L69.12,72l2.51-1.5,1.47.37c.18,0,.25-.25.07-.29L72,70.25l1-.61c.16-.1,0-.36-.15-.26l-1,.59.29-1.1a.15.15,0,0,0-.29-.07c-.12.45-.24.91-.35,1.37,0,0,0,0,0,0L69,71.69V68.84l1.07-1.07c.13-.13-.08-.34-.21-.2l-.86.85V67.23a.15.15,0,0,0-.3,0v1.14l-.8-.8c-.13-.14-.34.07-.21.2.33.34.66.68,1,1a0,0,0,0,0,0,0v2.94l-2.46-1.44c-.13-.49-.25-1-.38-1.47a.15.15,0,0,0-.29.08c.1.39.21.78.31,1.17l-1-.6c-.17-.1-.32.16-.15.25l1,.59-1.11.28a.15.15,0,0,0,.08.28L66,70.52h0L68.54,72l-2.49,1.49h0l-1.37-.34a.15.15,0,0,0-.07.29l1.1.27-1,.58a.15.15,0,0,0,.15.26l1-.61-.3,1.18a.15.15,0,0,0,.29.07c.12-.48.24-1,.37-1.46l2.46-1.48v3a0,0,0,0,1,0,0l-1,1c-.13.13.08.34.21.21l.8-.81v1.12a.15.15,0,0,0,.3,0V75.54l.86.86c.13.13.34-.08.21-.21L69,75.12V72.24l2.55,1.5v0c.13.45.25.91.37,1.37a.15.15,0,0,0,.29-.08l-.3-1.1,1,.57a.15.15,0,0,0,.15-.26l-1-.59,1.17-.31A.14.14,0,0,0,73.13,73.08Z"/><path class="cls-1" d="M83.51,114.7l-3,.78-5.21-3,5.13-3.07,3,.75a.3.3,0,0,0,.15-.59l-2.41-.6,2.11-1.26a.31.31,0,0,0-.32-.52l-2,1.2.57-2.25a.3.3,0,0,0-.58-.15l-.72,2.81s0,0,0,0l-5.15,3.08V106l2.19-2.18c.27-.28-.15-.71-.43-.43l-1.76,1.76v-2.46a.31.31,0,0,0-.61,0v2.35l-1.63-1.65a.3.3,0,0,0-.43.43l2,2.06s0,0,0,0v6q-2.5-1.48-5-3l-.78-3a.3.3,0,0,0-.59.15l.63,2.41-2.12-1.24a.3.3,0,0,0-.3.52l2,1.19-2.25.58a.3.3,0,0,0,.15.58l2.81-.72h0l5.09,3q-2.57,1.52-5.11,3l0,0-2.81-.69a.3.3,0,0,0-.15.59l2.26.55-2,1.18a.31.31,0,0,0,.31.53l2.06-1.24-.6,2.41a.3.3,0,0,0,.58.15c.26-1,.51-2,.76-3l5-3V119s0,0,0,0l-2,2.06c-.28.27.15.7.43.43.54-.56,1.09-1.11,1.63-1.66v2.3a.31.31,0,0,0,.61,0v-2.4c.59.58,1.17,1.17,1.76,1.76.28.27.7-.16.43-.43l-2.19-2.19V113l5.23,3.06v0l.75,2.8a.3.3,0,0,0,.59-.15l-.6-2.25,2,1.16a.3.3,0,0,0,.31-.52l-2.07-1.22,2.4-.62A.3.3,0,0,0,83.51,114.7Z"/></g></g></svg>