<svg xmlns="http://www.w3.org/2000/svg" viewBox="0 0 125.38 98.35"><defs><style>.cls-1{fill:#fff;}</style></defs><title>Asset 12</title><g id="Layer_2" data-name="Layer 2"><g id="Summer_Night" data-name="Summer Night"><path class="cls-1" d="M89.06,97.14,63.17,48.05l.18-.27-1-.67-33.75,50H0v1.21H125.38V97.14ZM68.72,84.41V97.14H57V84.41a4.34,4.34,0,0,1,4.34-4.34h3.07A4.34,4.34,0,0,1,68.72,84.41Zm-8.5-32L36.63,97.14H30.06Z"/><path class="cls-1" d="M109.59,16.31A12.93,12.93,0,1,1,100.48.45C89,8.89,101.69,24.87,109.59,16.31Z"/><circle class="cls-1" cx="33.61" cy="20.51" r="1.42"/><circle class="cls-1" cx="122.88" cy="23.4" r="1.42"/><circle class="cls-1" cx="91.62" cy="39.58" r="1.42"/><circle class="cls-1" cx="54.42" cy="31.46" r="1.42"/><circle class="cls-1" cx="70.67" cy="14.02" r="1.42"/><circle class="cls-1" cx="53.95" cy="2.91" r="1.42"/></g></g></svg>