<svg xmlns="http://www.w3.org/2000/svg" viewBox="0 0 107.05 114.98"><defs><style>.cls-1{fill:#fff;}</style></defs><title>Asset 16</title><g id="Layer_2" data-name="Layer 2"><g id="Thunder_and_Rain" data-name="Thunder and Rain"><path class="cls-1" d="M86.64,17.64a22.38,22.38,0,0,0-3.3.26C78.5,7.43,66.36,0,52.14,0,36.64,0,23.61,8.83,19.81,20.8,8.68,21.68,0,29,0,37.84,0,47.3,9.88,55,22.08,55A26.56,26.56,0,0,0,34.7,51.89,38.17,38.17,0,0,0,52.14,56a37.49,37.49,0,0,0,20.67-6,21.36,21.36,0,0,0,13.83,5c11.27,0,20.41-8.36,20.41-18.67S97.91,17.64,86.64,17.64Z"/><polygon class="cls-1" points="30.8 61.32 42.88 61.32 33.46 79.73 43.71 79.73 19.8 114.48 28.38 89.07 19.38 89.07 30.8 61.32"/><polygon class="cls-1" points="66.21 61.82 78.3 61.82 68.88 80.23 79.13 80.23 55.21 114.98 63.8 89.57 54.8 89.57 66.21 61.82"/><path class="cls-1" d="M11.85,65.8l-5,14.5c-.16.46.57.66.72.2l5-14.5c.16-.46-.56-.65-.72-.2Z"/><path class="cls-1" d="M21.15,60.24,5.91,103c-.15.42.52.6.67.18L21.82,60.43c.14-.42-.52-.6-.67-.19Z"/><path class="cls-1" d="M88.35,62.8l-5,14.5c-.16.46.57.66.72.2l5-14.5c.16-.46-.56-.65-.72-.2Z"/><path class="cls-1" d="M96.38,60.81,81.14,103.56c-.15.42.52.6.67.19L97,61c.15-.42-.51-.6-.66-.18Z"/><path class="cls-1" d="M50.81,64.6l-4,10.47c-.12.33.41.47.53.15l4-10.47c.13-.33-.4-.47-.53-.15Z"/><path class="cls-1" d="M56.7,63.34,47,88.37c-.13.33.4.47.52.15l9.68-25c.13-.33-.4-.47-.53-.14Z"/></g></g></svg>