<svg xmlns="http://www.w3.org/2000/svg" viewBox="0 0 98.55 96.03"><defs><style>.cls-1{fill:#fff;}</style></defs><title>Asset 10</title><g id="Layer_2" data-name="Layer 2"><g id="Forest"><path class="cls-1" d="M81.34,70.41l0,18.53a1.5,1.5,0,0,0,3,0l0-18.53a1.5,1.5,0,0,0-3,0Z"/><polygon class="cls-1" points="98.55 71.19 91.69 57.88 95.67 57.88 87.89 44.67 94.5 44.67 82.72 25.46 71.17 44.66 77.77 44.66 70 57.87 73.97 57.87 67.11 71.18 98.55 71.19"/><path class="cls-1" d="M14.23,70.41l0,18.53a1.5,1.5,0,0,0,3,0l0-18.53a1.5,1.5,0,0,0-3,0Z"/><polygon class="cls-1" points="31.43 71.19 24.57 57.88 28.55 57.88 20.78 44.67 27.38 44.67 15.61 25.46 4.05 44.66 10.65 44.66 2.88 57.87 6.86 57.87 0 71.18 31.43 71.19"/><path class="cls-1" d="M47.79,67.12l0,27.46a1.5,1.5,0,0,0,3,0l0-27.46a1.5,1.5,0,0,0-3,0Z"/><polygon class="cls-1" points="72.56 67.78 62.4 48.06 68.29 48.06 56.77 28.48 66.56 28.48 49.1 0 31.98 28.47 41.76 28.47 30.24 48.05 36.14 48.05 25.97 67.77 72.56 67.78"/></g></g></svg>