<svg xmlns="http://www.w3.org/2000/svg" viewBox="0 0 123.89 93.13"><defs><style>.cls-1{fill:#fff;}</style></defs><title>Asset 17</title><g id="Layer_2" data-name="Layer 2"><g id="Tropical_Beach" data-name="Tropical Beach"><circle class="cls-1" cx="90.02" cy="40.25" r="10.16"/><path class="cls-1" d="M73.33,21.17l6.18,6.18c.46.45,1.16-.25.71-.7L74,20.46c-.45-.45-1.15.25-.7.71Z"/><path class="cls-1" d="M68.27,34.81,73.88,36c.63.13.89-.83.27-1l-5.62-1.17c-.62-.13-.89.83-.26,1Z"/><path class="cls-1" d="M66.74,50.22l7.79-4c.57-.29.07-1.15-.5-.86l-7.79,4c-.57.29-.07,1.15.5.86Z"/><path class="cls-1" d="M77.72,59.6,81,55.3c.39-.51-.48-1-.86-.51l-3.27,4.3c-.39.51.48,1,.86.51Z"/><path class="cls-1" d="M92.3,65.45l-1.37-8.64c-.1-.63-1.05-.36-1,.27l1.36,8.64c.1.63,1.06.36,1-.27Z"/><path class="cls-1" d="M104.6,57.66l-4.06-4.51c-.43-.47-1.13.23-.71.71l4.07,4.5c.43.48,1.13-.23.7-.7Z"/><path class="cls-1" d="M114.81,45.89l-8.64-1.37c-.63-.1-.9.86-.27,1l8.64,1.37c.63.1.9-.86.27-1Z"/><path class="cls-1" d="M110.37,31.37l-4.85,2.89a.49.49,0,0,0,.5.85l4.85-2.88a.5.5,0,0,0-.5-.86Z"/><path class="cls-1" d="M103,18.45l-4,7.79c-.29.57.57,1.08.86.5l4-7.79c.29-.57-.57-1.07-.86-.5Z"/><path class="cls-1" d="M88.82,17.86l.28,5.7c0,.64,1,.64,1,0l-.28-5.7c0-.64-1-.64-1,0Z"/><path class="cls-1" d="M48.07,91.8C37.16,75.76,19.29,70.67.66,73.21-.5,73.37,0,75.13,1.15,75c17.74-2.41,34.94,2.46,45.33,17.75.66,1,2.25,0,1.59-.92Z"/><path class="cls-1" d="M42.82,85.27c2.3-1.71,5.62-3.34,8.54-3.1,5,.42,9.88,3.43,14.93,4.28,7.46,1.25,13.21-1.68,20.45-2.78s13.72,3.86,20.59,5.42c6.1,1.38,10.22-4.19,15.86-4.4.93,0,.93-1.48,0-1.45-2,.08-4,1.3-5.77,2.12-4.36,2-7.62,3.11-12.25,1.53C99.09,84.81,93,81.23,86.36,82.28c-3.93.62-7.66,2.11-11.55,2.87C69.51,86.19,64,84.78,59,83c-3.82-1.32-6.46-2.88-10.54-2a17,17,0,0,0-6.34,3c-.74.55,0,1.8.73,1.25Z"/><circle class="cls-1" cx="31.02" cy="86.26" r="0.5"/><circle class="cls-1" cx="16.93" cy="91.51" r="0.49"/><circle class="cls-1" cx="5.85" cy="81.09" r="0.49"/><path class="cls-1" d="M34.82,23.6l22.57,1.94s-.17-9.25-7.59-10.35a33.78,33.78,0,0,0-9.41-.07L51,8.07S44.59,1.39,39,4.55a22,22,0,0,0-7.42,6.64A22,22,0,0,0,27,2.41c-4.1-4.88-12.39-.83-12.39-.83L23,13.21A31.36,31.36,0,0,0,11.45,9.46C4,8.51,1.34,17.37,1.34,17.37L21.1,21.14a26.39,26.39,0,0,0-12.57,4.8c-5.88,4-2.18,12.5-2.18,12.5L25,27.37A319.63,319.63,0,0,1,13.19,79.61a6.73,6.73,0,0,1,5.22,2c2.33-7.47,4.25-14.42,5.87-21.21-1.22-.1-2.19-.41-2.16-.7l2.17.69c1.94-8.12,3.49-16.06,4.88-24.51-1.23-.11-2.21-.42-2.18-.71l2.18.7c.46-2.83.91-5.72,1.35-8.69l9.54,21.06s7.87-4.83,5.36-11.5C42.52,29.31,38.36,25.52,34.82,23.6ZM22.22,68.1C21,68,20,67.68,20,67.39Zm1.69-16.7,2.22.72C24.88,52,23.89,51.7,23.91,51.4Zm3.66-6.71c-1.25-.1-2.24-.42-2.22-.71Z"/></g></g></svg>