<svg xmlns="http://www.w3.org/2000/svg" viewBox="0 0 76.97 92.41"><defs><style>.cls-1{fill:#fff;}</style></defs><title>Asset 15</title><g id="Layer_2" data-name="Layer 2"><g id="washing_machine" data-name="washing machine"><path class="cls-1" d="M38.69,75.56A23.94,23.94,0,1,1,62.63,51.62,24,24,0,0,1,38.69,75.56Zm0-46.26A22.33,22.33,0,1,0,61,51.62,22.34,22.34,0,0,0,38.69,29.3Z"/><rect class="cls-1" x="8.01" y="7.61" width="23.55" height="8.41"/><circle class="cls-1" cx="42.2" cy="12.38" r="3.92"/><circle class="cls-1" cx="53.68" cy="12.38" r="3.92"/><path class="cls-1" d="M69.35,0H7.62A7.63,7.63,0,0,0,0,7.62V77.73a7.63,7.63,0,0,0,7.62,7.62H8.85a1.07,1.07,0,0,0-.22.63v5.29a1.14,1.14,0,0,0,1.14,1.14H67.2a1.14,1.14,0,0,0,1.14-1.14V86a1.07,1.07,0,0,0-.22-.63h1.23A7.63,7.63,0,0,0,77,77.73V7.62A7.63,7.63,0,0,0,69.35,0ZM67.5,91.27a.31.31,0,0,1-.3.3H9.77a.31.31,0,0,1-.3-.3V86a.3.3,0,0,1,.3-.3H67.2a.3.3,0,0,1,.3.3ZM7.62.84H69.35a6.79,6.79,0,0,1,6.78,6.78V20.83H.84V7.62A6.79,6.79,0,0,1,7.62.84ZM69.35,84.51H7.62A6.79,6.79,0,0,1,.84,77.73V22.43H76.13v55.3A6.79,6.79,0,0,1,69.35,84.51Z"/><rect class="cls-1" x="63.79" y="9.33" width="7.57" height="1.61"/><rect class="cls-1" x="63.79" y="14.05" width="7.57" height="1.61"/><path class="cls-1" d="M38.69,31.64a20,20,0,1,0,20,20A20,20,0,0,0,38.69,31.64Zm0,38.36A18.38,18.38,0,1,1,56.22,46.12c-7-.49-8.27,13.52-1.6,14.63A18.4,18.4,0,0,1,38.69,70Z"/><path class="cls-1" d="M24.82,49.94a10.34,10.34,0,0,1,.77-5,11.76,11.76,0,0,1,3-4.18A12.39,12.39,0,0,1,38,37.61a16.75,16.75,0,0,0-4.79,1.19,14.55,14.55,0,0,0-4.09,2.59,13.09,13.09,0,0,0-4.3,8.55Z"/></g></g></svg>