<svg xmlns="http://www.w3.org/2000/svg" viewBox="0 0 106.82 42.41"><defs><style>.cls-1{fill:#fff;stroke:#fff;stroke-miterlimit:10;stroke-width:0.75px;}</style></defs><title>Asset 21</title><g id="Layer_2" data-name="Layer 2"><g id="ocean_waves" data-name="ocean waves"><path class="cls-1" d="M105.72,13.74A25.55,25.55,0,0,1,83.71.88a.77.77,0,0,0-1.38.18C79.44,14.26,57.74,13.59,54,1.33a.76.76,0,0,0-1.1-.44c-1.47.73-2.63,4.29-4.06,5.58a15.74,15.74,0,0,1-8,3.85A14.84,14.84,0,0,1,24.32.92.76.76,0,0,0,23,.74,26,26,0,0,1,1.1,13.87a.75.75,0,0,0,0,1.5A27.51,27.51,0,0,0,24.25,1.49l-1.37-.17A16.2,16.2,0,0,0,39,12a17.39,17.39,0,0,0,9.93-3.66,17.1,17.1,0,0,0,3.26-3.43c.55-.76,1.6-1.71.64-2.24a20.26,20.26,0,0,0,.85,1.93c6.14,11.22,27.21,10,30.1-3.15l-1.37.18a27.05,27.05,0,0,0,23.31,13.6.75.75,0,0,0,0-1.5Z"/><path class="cls-1" d="M105.72,27.07a25.55,25.55,0,0,1-22-12.85.77.77,0,0,0-1.38.18C79.44,27.6,57.74,26.92,54,14.67a.76.76,0,0,0-1.1-.45c-1.47.73-2.63,4.29-4.06,5.59a15.72,15.72,0,0,1-8,3.84,14.82,14.82,0,0,1-16.51-9.4A.76.76,0,0,0,23,14.07,26,26,0,0,1,1.1,27.2a.75.75,0,0,0,0,1.5A27.5,27.5,0,0,0,24.25,14.83l-1.37-.18A16.2,16.2,0,0,0,39,25.34a17.32,17.32,0,0,0,9.93-3.66,16.79,16.79,0,0,0,3.26-3.42c.55-.77,1.6-1.72.64-2.25a19.21,19.21,0,0,0,.85,1.93c6.14,11.23,27.21,10,30.1-3.15L82.41,15a27.05,27.05,0,0,0,23.31,13.6.75.75,0,0,0,0-1.5Z"/><path class="cls-1" d="M105.72,40.41a25.58,25.58,0,0,1-22-12.86.77.77,0,0,0-1.38.18C79.44,40.93,57.74,40.25,54,28a.76.76,0,0,0-1.1-.45c-1.47.74-2.63,4.29-4.06,5.59a15.72,15.72,0,0,1-8,3.84,14.81,14.81,0,0,1-16.51-9.4A.76.76,0,0,0,23,27.4,26,26,0,0,1,1.1,40.53a.75.75,0,0,0,0,1.5A27.48,27.48,0,0,0,24.25,28.16L22.88,28A16.23,16.23,0,0,0,39,38.68,17.4,17.4,0,0,0,48.93,35a16.79,16.79,0,0,0,3.26-3.42c.55-.77,1.6-1.71.64-2.25a18.25,18.25,0,0,0,.85,1.93c6.14,11.23,27.21,10,30.1-3.14l-1.37.18a27.07,27.07,0,0,0,23.31,13.6.75.75,0,0,0,0-1.5Z"/></g></g></svg>