<svg xmlns="http://www.w3.org/2000/svg" viewBox="0 0 75.65 85.77"><defs><style>.cls-1{fill:#fff;}</style></defs><title>Asset 19</title><g id="Layer_2" data-name="Layer 2"><g id="Water_Drop" data-name="Water Drop"><path class="cls-1" d="M38.67,0s-43,60.13-2.46,64.76a17.66,17.66,0,0,0,4.11,0C78.46,59.89,38.67,0,38.67,0ZM28.86,57.19a12.92,12.92,0,0,1-4-4.42,9.77,9.77,0,0,1-1.17-5.72,13.27,13.27,0,0,0,5.78,9.23,19.6,19.6,0,0,0,5,2.52,27.13,27.13,0,0,0,5.57,1.25A16.48,16.48,0,0,1,28.86,57.19Z"/><path class="cls-1" d="M38.28,74.27c-13.39,0-21.76-4-25-7.72a2.75,2.75,0,0,1-.74-2.07c.11-2,2.09-3.71,2.17-3.79l.66.75s-1.75,1.57-1.83,3.1a1.74,1.74,0,0,0,.49,1.34C19,71.54,31.25,73.63,41.24,73.2c9.77-.42,17.58-3.08,20.39-7a1.49,1.49,0,0,0,.4-1.32c-.25-1.2-2-2.3-2.66-2.62l.44-.9c.11.05,2.79,1.4,3.2,3.3a2.47,2.47,0,0,1-.59,2.16c-3,4.14-10.92,6.89-21.14,7.33C40.26,74.25,39.26,74.27,38.28,74.27Z"/><path class="cls-1" d="M39.64,85.77c-15.53,0-31.51-2.79-38.5-8.28A2.41,2.41,0,0,1,0,75.4c.11-2,2.94-3.7,3.26-3.88l.5.86C3,72.82,1.07,74.22,1,75.46a1.47,1.47,0,0,0,.74,1.23c13.46,10.58,60.74,11,72.29.61.7-.57.63-1,.61-1.08-.2-1.09-2.66-2.28-4.16-2.78l.32-.94c.45.15,4.45,1.52,4.82,3.54a2.08,2.08,0,0,1-.94,2C68.93,83.22,54.49,85.77,39.64,85.77Z"/></g></g></svg>